<svg 
  xmlns="http://www.w3.org/2000/svg" 
  viewBox="0 0 24 24" 
  fill="none" 
  stroke="#3370FF" 
  stroke-width="2.2" 
  stroke-linecap="round" 
  stroke-linejoin="round"
>
  <defs>
    <linearGradient id="cloud-gradient" x1="0%" y1="0%" x2="100%" y2="100%">
      <stop offset="0%" stop-color="#3370FF" stop-opacity="1" />
      <stop offset="100%" stop-color="#2152D9" stop-opacity="1" />
    </linearGradient>
    <linearGradient id="paper-gradient" x1="0%" y1="0%" x2="0%" y2="100%">
      <stop offset="0%" stop-color="#FFFFFF" stop-opacity="1" />
      <stop offset="100%" stop-color="#E1EFFF" stop-opacity="1" />
    </linearGradient>
  </defs>
  <rect x="0" y="0" width="24" height="24" rx="6" fill="#F4F9FF" stroke="none" />
  <path d="M17.5 12c1.38 0 2.5-1.12 2.5-2.5 0-1.35-1.07-2.45-2.4-2.5A5 5 0 0 0 8.3 5.4 3.5 3.5 0 0 0 5.5 9c0 .7.26 1.34.68 1.83" stroke="url(#cloud-gradient)" fill="#E8F3FF" />
  <rect x="4" y="11" width="16" height="7" rx="1.5" fill="#3370FF" stroke="none" />
  <path d="M8 18h8v3H8a1 1 0 0 1-1-1v-2" stroke="#2152D9" fill="url(#paper-gradient)" />
  <circle cx="17" cy="14.5" r="1.5" fill="#00D6B9" stroke="none" />
</svg>